<svg xmlns="http://www.w3.org/2000/svg" viewBox="0 0 1600 900" role="img"><defs><radialGradient id="bg"><stop offset="0" stop-color="#1d170e"/><stop offset=".45" stop-color="#090b0f"/><stop offset="1" stop-color="#030405"/></radialGradient><linearGradient id="g" x1="0" x2="1"><stop stop-color="#7c5b24"/><stop offset=".45" stop-color="#f0d18b"/><stop offset="1" stop-color="#8d692c"/></linearGradient><filter id="glow"><feGaussianBlur stdDeviation="5" result="b"/><feMerge><feMergeNode in="b"/><feMergeNode in="SourceGraphic"/></feMerge></filter><style>.t{fill:#efe4cc;font-family:Georgia,serif}.k{fill:#d7b76f;font-family:Arial,sans-serif;letter-spacing:4px}.s{fill:#a89c85;font-family:Arial,sans-serif}.line{stroke:url(#g);stroke-width:2;fill:none}.thin{stroke:#735d34;stroke-width:1;fill:none}.node{fill:#0b0d10;stroke:url(#g);stroke-width:2}.gold{fill:url(#g)}</style></defs><rect width="1600" height="900" fill="url(#bg)"/><rect x="28" y="28" width="1544" height="844" rx="18" class="thin"/><path d="M75 70h250M1275 70h250M75 830h250M1275 830h250" class="line"/><text x="800" y="85" text-anchor="middle" class="k" font-size="42">DIO</text><text x="800" y="125" text-anchor="middle" class="s" font-size="19">A proof-carrying intelligence operating architecture</text><circle cx="800" cy="480" r="260" class="line" opacity=".45"/><circle cx="800" cy="480" r="105" class="node" filter="url(#glow)"/><text x="800" y="470" text-anchor="middle" class="k" font-size="52">DIO</text><text x="800" y="505" text-anchor="middle" class="s" font-size="14">GOVERNED CONSEQUENCE</text><circle cx="800.0" cy="140.0" r="70" class="node"/><text x="800.0" y="145.0" text-anchor="middle" class="t" font-size="17">INTENT</text><circle cx="1040.4" cy="239.6" r="70" class="node"/><text x="1040.4163056034263" y="244.58369439657386" text-anchor="middle" class="t" font-size="17">COMPOSE</text><circle cx="1140.0" cy="480.0" r="70" class="node"/><text x="1140.0" y="485.0" text-anchor="middle" class="t" font-size="17">EXECUTE</text><circle cx="1040.4" cy="720.4" r="70" class="node"/><text x="1040.4163056034263" y="725.4163056034262" text-anchor="middle" class="t" font-size="17">PROVE</text><circle cx="800.0" cy="820.0" r="70" class="node"/><text x="800.0" y="825.0" text-anchor="middle" class="t" font-size="17">SETTLE</text><circle cx="559.6" cy="720.4" r="70" class="node"/><text x="559.5836943965738" y="725.4163056034262" text-anchor="middle" class="t" font-size="17">LEARN</text><circle cx="460.0" cy="480.0" r="70" class="node"/><text x="460.0" y="485.00000000000006" text-anchor="middle" class="t" font-size="17">RECOMPOSE</text><circle cx="559.6" cy="239.6" r="70" class="node"/><text x="559.5836943965737" y="244.58369439657386" text-anchor="middle" class="t" font-size="17">MARKET REALITY</text><rect x="430" y="760" width="740" height="78" rx="18" class="node"/><text x="800.0" y="798" text-anchor="middle" class="t" font-size="24">Most AI optimizes for plausible output.</text><text x="800.0" y="828" text-anchor="middle" class="s" font-size="13">DIO optimizes for governed consequence.</text></svg>